<svg width="86" height="26" viewBox="0 0 86 26" fill="none" xmlns="http://www.w3.org/2000/svg">
<g id="BBC logo">
<path id="Shape" fill-rule="evenodd" clip-rule="evenodd" d="M86 0.449814H59.9809V25.2064H86V0.449814ZM76.0222 3.83694C76.1412 3.85549 76.2587 3.87486 76.3728 3.89465L76.3716 3.89506L76.3954 3.89946C76.5256 3.92352 76.6553 3.94749 76.7822 3.97586C76.9151 4.00347 77.0463 4.03274 77.176 4.06242L77.4125 4.12013C77.5352 4.15063 77.6563 4.18196 77.7745 4.2137C77.8756 4.24091 77.9743 4.26894 78.0713 4.29697L78.161 4.32253C78.2308 4.34278 78.3009 4.36404 78.3695 4.3849L78.3696 4.38491L78.4562 4.41115C78.5456 4.43835 78.6328 4.46682 78.718 4.49463L78.7181 4.49468C78.7607 4.50858 78.8028 4.52232 78.8443 4.53564C78.9203 4.56003 78.9941 4.58577 79.066 4.61089L79.121 4.63005L79.1664 4.6457C79.2519 4.6745 79.3335 4.70383 79.4125 4.7322L79.4126 4.73226C79.4545 4.74731 79.4957 4.76209 79.5362 4.77637C79.7458 4.85181 79.9301 4.92229 80.0858 4.98248C80.4393 5.11686 80.6444 5.2026 80.6444 5.2026V8.51678L80.3039 8.32922C80.2679 8.30961 80.2297 8.28853 80.1893 8.26625L80.1892 8.26619C80.087 8.20982 79.9708 8.1457 79.84 8.07777L79.7541 8.03292C79.6751 7.9915 79.5927 7.94827 79.5056 7.90547L79.4414 7.87374L79.4412 7.87367C79.3157 7.81167 79.1842 7.74669 79.0462 7.68411L78.9784 7.65325C78.8045 7.57399 78.6246 7.49202 78.437 7.41617L78.3796 7.393L78.3794 7.39293C78.2397 7.33652 78.0987 7.27961 77.9543 7.22779C77.9543 7.22779 77.852 7.18946 77.6665 7.12474C77.5592 7.08723 77.421 7.04354 77.2596 6.99489L77.2368 6.98808L77.2367 6.98806L77.2365 6.98801C77.1352 6.95773 77.0254 6.9249 76.9061 6.89349C76.71 6.84155 76.4915 6.78755 76.2509 6.73932C76.096 6.70882 75.9296 6.67873 75.7584 6.65276C75.5656 6.62308 75.3625 6.5967 75.1517 6.57691C75.0668 6.56896 74.9809 6.56297 74.8933 6.55687L74.8932 6.55686L74.8932 6.55686L74.815 6.55135C74.6502 6.54064 74.481 6.53487 74.3086 6.53074C74.2484 6.52914 74.189 6.52928 74.1286 6.52943H74.1286L74.0762 6.52951C73.8434 6.52951 73.6045 6.54022 73.3607 6.56166C73.2343 6.57238 73.1063 6.58639 72.9774 6.60288C72.8494 6.62102 72.7206 6.63998 72.5913 6.66471C72.4751 6.68656 72.3561 6.70964 72.2387 6.73726C72.1225 6.76488 72.0034 6.79374 71.886 6.82671C71.7625 6.86216 71.6369 6.90091 71.5138 6.94213C71.3984 6.9817 71.2871 7.0221 71.1729 7.06744L71.1601 7.07266C71.0525 7.1163 70.9436 7.16048 70.8378 7.20924C70.1251 7.53736 69.4361 8.00069 68.8245 8.61901C68.7991 8.64492 68.7745 8.67177 68.7501 8.6984L68.7501 8.69848L68.75 8.69854L68.75 8.69859C68.7348 8.71511 68.7198 8.73155 68.7046 8.74762C68.6268 8.83212 68.5518 8.92075 68.4812 9.00731C68.4262 9.0745 68.374 9.14293 68.323 9.21053C68.1824 9.40015 68.058 9.591 67.9479 9.78351C67.8982 9.87131 67.8493 9.95787 67.8052 10.0444C67.7465 10.1607 67.6919 10.2745 67.643 10.3886L67.6406 10.3943L67.6406 10.3943C67.6055 10.4769 67.5709 10.5583 67.5411 10.6401C67.4942 10.7642 67.4514 10.8849 67.4147 11.0053C67.3747 11.138 67.3392 11.2654 67.3095 11.392C67.2654 11.5816 67.2312 11.7629 67.2067 11.932C67.1668 12.2106 67.1517 12.4546 67.1444 12.6476C67.1411 12.7292 67.1403 12.8001 67.1403 12.8619C67.1403 12.9559 67.1423 13.073 67.1484 13.2082C67.1525 13.2984 67.1594 13.3961 67.1688 13.5025C67.1941 13.7758 67.2398 14.0985 67.327 14.4506C67.3568 14.5722 67.3906 14.6987 67.4314 14.8257C67.4827 14.9881 67.5443 15.1604 67.6161 15.3294C67.6585 15.4292 67.7033 15.5302 67.7531 15.6311C67.8105 15.7486 67.8733 15.8682 67.9426 15.9877C67.9883 16.0664 68.0368 16.1472 68.0886 16.2256C68.1428 16.308 68.1987 16.3929 68.2598 16.4754C68.3226 16.5619 68.3887 16.6477 68.4588 16.7334C68.584 16.8855 68.7218 17.0376 68.8714 17.1885L68.9122 17.2276L68.9448 17.259L68.9998 17.3101L69.1107 17.4107C69.1882 17.4799 69.282 17.557 69.3717 17.6291C69.4662 17.7042 69.5625 17.7742 69.6603 17.8435C69.737 17.8971 69.8169 17.9494 69.896 18.0001C69.9775 18.0508 70.0542 18.0978 70.1316 18.1432C70.2898 18.2334 70.4525 18.3171 70.6148 18.3954C70.6922 18.4321 70.7689 18.4655 70.8472 18.4993C70.8912 18.5183 70.9381 18.5381 70.9829 18.5554L71.0144 18.5681C71.0738 18.592 71.1336 18.6161 71.1925 18.6378C71.6671 18.8109 72.1514 18.9354 72.6345 19.017C72.933 19.0682 73.2294 19.1011 73.5201 19.1218C73.7684 19.1395 74.0122 19.1457 74.2487 19.1457C74.3587 19.1457 74.477 19.1428 74.6034 19.1374C74.7991 19.1279 75.0143 19.1147 75.2475 19.0888C75.3976 19.0723 75.5525 19.0529 75.7156 19.0269C75.7833 19.0162 75.8526 19.0047 75.9219 18.9923C76.5114 18.8893 77.1805 18.7203 77.9074 18.4564C78.2911 18.3175 78.6861 18.1514 79.0996 17.9548C79.334 17.8427 79.5705 17.7198 79.813 17.5871C80.0344 17.4651 80.2546 17.334 80.4829 17.1938L80.712 17.0537L80.7325 17.0413C80.7657 17.0213 80.7997 17.0008 80.8315 16.9803V20.3563C80.7952 20.3749 80.7589 20.3924 80.7226 20.4099C80.7018 20.4198 80.681 20.4298 80.6603 20.44C80.5265 20.506 80.392 20.5719 80.2656 20.6296C80.1233 20.6964 79.9839 20.7595 79.8563 20.8151C79.6414 20.9079 79.4522 20.9833 79.2957 21.0451C79.177 21.0921 79.0763 21.1284 79.0029 21.1548L78.8545 21.2071C78.7025 21.2599 78.5406 21.3139 78.3734 21.3646C78.2344 21.4071 78.0889 21.4495 77.9392 21.4895C77.7354 21.5439 77.5225 21.5967 77.2983 21.6453C77.1536 21.6762 77.0056 21.7063 76.8519 21.7352C76.6093 21.7785 76.3528 21.8189 76.0854 21.8527C75.9101 21.8741 75.7307 21.8939 75.5431 21.9112L75.451 21.9194C74.9825 21.959 74.4766 21.9796 73.929 21.9796C73.8721 21.9796 73.8146 21.9785 73.7577 21.9775L73.717 21.9767C73.5641 21.9743 73.4137 21.9685 73.2657 21.9611C72.9599 21.9458 72.6655 21.9186 72.3809 21.884C72.0947 21.8489 71.8175 21.8057 71.5517 21.7533C71.221 21.6882 70.9059 21.6111 70.6066 21.5254C70.4305 21.4738 70.2613 21.4207 70.0962 21.3638C69.929 21.3061 69.7675 21.2451 69.6118 21.1824C69.1943 21.0126 68.8151 20.8258 68.4714 20.6313C68.2973 20.5332 68.1343 20.4318 67.9793 20.3312C67.8326 20.2355 67.6948 20.1383 67.5635 20.0435C67.4559 19.966 67.3556 19.8865 67.2582 19.8093L67.2579 19.8091L67.2579 19.8091L67.2504 19.8031C67.1574 19.7295 67.0711 19.6553 66.9879 19.5836L66.9499 19.5509C66.8127 19.4336 66.6939 19.3179 66.584 19.2108L66.584 19.2108L66.584 19.2108L66.5776 19.2046L66.5043 19.1325C66.3697 18.9969 66.2299 18.8493 66.0912 18.6885C65.9812 18.5595 65.867 18.4247 65.7569 18.2804C65.653 18.1444 65.5474 18.0014 65.4462 17.853C65.3688 17.7392 65.2925 17.6246 65.2179 17.5042C65.1254 17.3546 65.0361 17.198 64.9488 17.0372C64.8004 16.7639 64.6635 16.4733 64.5379 16.1703C64.4588 15.9799 64.3874 15.7832 64.3202 15.5825C64.2655 15.4184 64.2174 15.2515 64.1718 15.0813C64.1367 14.9502 64.1053 14.8166 64.0768 14.6814C64.0633 14.6183 64.0503 14.5544 64.038 14.4918C64.007 14.329 63.9818 14.1645 63.9606 13.9971L63.9504 13.8982C63.9341 13.7572 63.9231 13.6154 63.9137 13.4712C63.9047 13.3335 63.9035 13.1941 63.9035 13.0532C63.9035 12.8648 63.9108 12.6789 63.921 12.4954C63.9345 12.2564 63.9581 12.0226 63.9883 11.793C64.0849 11.0618 64.261 10.375 64.5049 9.7361C64.6993 9.22372 64.9374 8.74308 65.209 8.2946C65.2554 8.21875 65.3019 8.14373 65.3508 8.06953C65.4218 7.95988 65.4952 7.85229 65.5702 7.74636C65.6721 7.60332 65.7785 7.46523 65.8866 7.33002C65.9861 7.20595 66.09 7.08682 66.194 6.96851C66.2971 6.85186 66.406 6.74056 66.5149 6.6305C66.6408 6.50354 66.7766 6.37699 66.916 6.25209C67.0648 6.11812 67.2247 5.98745 67.389 5.85843C67.4668 5.79742 67.5472 5.73847 67.6279 5.67953C67.7217 5.61069 67.8187 5.5435 67.9174 5.47754C68.0882 5.3613 68.2668 5.25206 68.4523 5.14365C68.6431 5.03235 68.8425 4.92642 69.0492 4.8246C69.2966 4.70094 69.5592 4.58552 69.8307 4.47834C70.3583 4.27059 70.9291 4.09498 71.5464 3.96308C71.6467 3.94205 71.7486 3.92144 71.8505 3.90207C71.9239 3.88847 71.9977 3.87528 72.0735 3.86291L72.246 3.83529L72.3854 3.81468L72.5118 3.79737C72.6623 3.77799 72.8156 3.76109 72.9705 3.74708L73.0064 3.74396C73.0994 3.73588 73.1932 3.72773 73.2885 3.72152C73.4773 3.70915 73.6685 3.70009 73.8654 3.69679C73.9025 3.69635 73.934 3.69581 73.9642 3.69529L73.9642 3.69529C74.019 3.69435 74.0689 3.69349 74.1378 3.69349C74.3718 3.69349 74.6152 3.69967 74.861 3.71493C74.9988 3.72317 75.1375 3.73265 75.2761 3.74625C75.4799 3.76563 75.6826 3.78871 75.8811 3.81633L76.0222 3.83694ZM39.9837 14.1023V18.9664H43.1079C43.1079 18.9664 43.1703 18.9647 43.2727 18.9606L43.2889 18.9599C43.393 18.9559 43.5358 18.9503 43.7069 18.9359C44.0477 18.9037 44.4929 18.841 44.9259 18.6926C45.3185 18.5591 45.7006 18.3588 45.9921 18.0636C46.1042 17.9503 46.1971 17.8319 46.2722 17.7124C46.5168 17.3225 46.5792 16.9251 46.5926 16.7004C46.6 16.6031 46.5995 16.5458 46.5995 16.5458C46.5995 16.5458 46.6012 16.5022 46.5995 16.4263C46.5955 16.3323 46.5849 16.1501 46.5351 15.9556C46.4764 15.7247 46.3659 15.4568 46.1698 15.2123C46.1331 15.1658 46.0924 15.1192 46.0487 15.0751C45.9631 14.9885 45.8702 14.9044 45.7682 14.8286C45.597 14.7016 45.4013 14.5928 45.1893 14.4996C44.9088 14.3772 44.594 14.2853 44.2491 14.2193C44.0726 14.1863 43.885 14.1587 43.6938 14.141C43.5756 14.1286 43.4573 14.1204 43.3338 14.1134C43.227 14.1064 43.1145 14.1018 43.0036 14.1018C41.8946 14.1018 39.9825 14.1006 39.9825 14.1006L39.9837 14.1023ZM39.9837 11.3178V6.70513H42.067C42.2057 6.70513 42.3683 6.70801 42.5469 6.72038C42.9575 6.74758 43.4447 6.82343 43.8707 7.01305C44.0929 7.11239 44.2992 7.24306 44.4693 7.41207C44.6103 7.55304 44.7135 7.69814 44.7897 7.84901C44.9459 8.16353 44.9871 8.49 44.9977 8.69116C45.0042 8.8107 45.0009 8.88696 45.0009 8.88696C45.0009 8.88696 45.0017 8.98837 44.9879 9.14789C44.9724 9.32679 44.9349 9.57948 44.828 9.84329C44.7404 10.0585 44.6079 10.2802 44.4081 10.4789C44.1561 10.7291 43.8324 10.9068 43.4948 11.0284C43.4121 11.0581 43.3277 11.0845 43.2437 11.1084C42.8132 11.23 42.3822 11.2737 42.0711 11.2972C42.0451 11.2985 42.0183 11.3 41.9911 11.3014C41.9025 11.3062 41.8106 11.3111 41.7307 11.3137C41.5974 11.3178 41.4963 11.3178 41.4963 11.3178H39.9837Z" fill="#303030"/>
<path id="Shape_2" fill-rule="evenodd" clip-rule="evenodd" d="M55.8246 0.449814H29.8052H29.8048V25.2064H55.8246V0.449814ZM36.6304 21.7508V3.92145H36.63V3.92063H42.3544C45.4347 3.92063 46.7985 5.55051 46.7985 5.55051C46.7985 5.55051 48.0449 6.63875 48.0449 8.5308C48.0449 10.3377 47.2606 11.1223 46.9892 11.394L46.9595 11.4237C46.4507 11.9381 45.7886 12.2523 45.7886 12.2523C45.7886 12.2523 47.2543 12.5614 48.4021 13.7214C49.7492 15.0841 49.6444 16.8608 49.6444 16.8608C49.6444 16.8608 49.7487 18.5628 48.294 20.0336C46.5066 21.8415 43.2693 21.7508 43.2693 21.7508H36.6304ZM9.80745 14.1023V18.9664H12.9318C12.9318 18.9664 12.9942 18.9647 13.0965 18.9606L13.1104 18.96C13.2153 18.956 13.3583 18.9504 13.5307 18.9359C13.8712 18.9037 14.3168 18.841 14.7498 18.6926C15.1424 18.5591 15.5245 18.3588 15.8156 18.0636C15.9285 17.9503 16.0215 17.8319 16.0957 17.7124C16.3411 17.3225 16.4027 16.9251 16.4166 16.7004C16.4239 16.6031 16.4231 16.5458 16.4231 16.5458C16.4231 16.5458 16.4247 16.5022 16.4231 16.4263C16.4198 16.3323 16.4084 16.1501 16.3591 15.9556C16.3004 15.7247 16.1903 15.4568 15.9942 15.2123C15.9575 15.1658 15.9167 15.1192 15.8731 15.0751C15.7875 14.9885 15.6949 14.9044 15.593 14.8286C15.4217 14.7016 15.226 14.5928 15.014 14.4996C14.7335 14.3772 14.4196 14.2853 14.0738 14.2193C13.8973 14.1863 13.7101 14.1587 13.5185 14.141C13.4003 14.1286 13.282 14.1204 13.1585 14.1134C13.0517 14.1064 12.9391 14.1018 12.8282 14.1018C11.7201 14.1018 9.80827 14.1006 9.80827 14.1006L9.80745 14.1023ZM9.80743 11.3178V6.70513H11.8905C12.0291 6.70513 12.1918 6.70801 12.3699 6.72038C12.7805 6.74758 13.2681 6.82343 13.6938 7.01305C13.916 7.11239 14.1223 7.24306 14.2923 7.41207C14.4334 7.55304 14.5366 7.69814 14.6128 7.84901C14.7686 8.16353 14.8101 8.49 14.8207 8.69116C14.8269 8.8107 14.824 8.88696 14.824 8.88696C14.824 8.88696 14.8248 8.98837 14.811 9.14789C14.7955 9.32679 14.758 9.57948 14.6507 9.84329C14.5635 10.0585 14.4314 10.2802 14.2316 10.4789C13.9796 10.7291 13.6559 10.9068 13.3183 11.0284C13.2355 11.0581 13.1511 11.0845 13.0671 11.1084C12.6366 11.23 12.2056 11.2737 11.8945 11.2972C11.8689 11.2985 11.8425 11.2999 11.8158 11.3014C11.7271 11.3061 11.635 11.3111 11.5545 11.3137C11.4212 11.3178 11.3201 11.3178 11.3201 11.3178H9.80743Z" fill="#303030"/>
<path id="Shape_3" fill-rule="evenodd" clip-rule="evenodd" d="M25.6491 0.449814H0.000401917H0V25.2064H25.6491V0.449814ZM6.72851 21.7508V3.92145H6.72811V3.92063H12.371C15.4079 3.92063 16.7527 5.55051 16.7527 5.55051C16.7527 5.55051 17.9806 6.63875 17.9806 8.5308C17.9806 10.3363 17.2083 11.1212 16.9404 11.3934C16.9297 11.4043 16.9197 11.4144 16.9107 11.4237C16.4095 11.9381 15.7564 12.2523 15.7564 12.2523C15.7564 12.2523 17.2013 12.5614 18.3327 13.7214C19.6606 15.0841 19.5569 16.8608 19.5569 16.8608C19.5569 16.8608 19.6606 18.5628 18.2257 20.0336C16.4637 21.8415 13.2725 21.7508 13.2725 21.7508H6.72851Z" fill="#303030"/>
</g>
</svg>
