<svg width="115" height="24" viewBox="0 0 115 24" fill="none" xmlns="http://www.w3.org/2000/svg">
<g id="Saintburys logo">
<g id="Clipped">
<g id="Object">
<mask id="mask0_1_881" style="mask-type:luminance" maskUnits="userSpaceOnUse" x="0" y="0" width="115" height="24">
<rect id="Rectangle" y="0.486435" width="115" height="22.6834" fill="white"/>
</mask>
<g mask="url(#mask0_1_881)">
<path id="Shape" fill-rule="evenodd" clip-rule="evenodd" d="M105.508 0.486435C107.924 0.486435 106.453 5.51617 105.147 5.51617H104.564C104.37 5.51617 104.231 5.40276 104.231 5.2583C104.231 4.88581 104.674 4.45602 104.674 3.25739C104.674 2.08621 103.843 1.22902 103.843 0.885185C103.843 0.713269 103.898 0.486435 104.203 0.486435H105.508ZM28.0403 0.585523C26.8277 0.585523 26.2472 1.33646 26.2472 2.2044C26.2472 3.24306 26.9642 3.93789 28.0403 3.93789C29.1165 3.93789 29.7784 3.24306 29.7784 2.2044C29.7784 1.33646 29.1991 0.585523 28.0403 0.585523ZM11.835 12.8513C11.835 18.6296 5.16277 19.9524 0.475219 17.6817C0.196312 17.5098 0.138855 17.3641 0.138855 17.105V15.6402C0.138855 15.3811 0.223844 15.122 0.697866 15.122C0.949241 15.122 1.11682 15.2653 1.48072 15.5232C5.36028 18.3144 8.70836 16.6478 8.70836 14.2601C8.70836 10.3215 0 11.5273 0 5.718C0 3.04375 2.011 0.683488 5.72178 0.683488C7.564 0.683488 9.23864 1.05955 10.1879 1.43323C10.4405 1.54665 10.4955 1.69111 10.4955 1.95256V3.618C10.4955 3.87707 10.4117 4.08002 10.1041 4.08002C9.85391 4.08002 9.6588 3.93437 9.35116 3.70754C8.23434 2.87183 7.17377 2.38235 5.77684 2.38235C4.21592 2.38235 2.98778 3.27297 2.98778 4.59458C2.98778 7.87411 11.835 7.53147 11.835 12.8513ZM56.6864 0.683452C56.5463 0.683452 56.4074 0.829103 56.4074 1.03206H56.4062V15.9076C56.4062 16.3708 56.49 16.9152 56.909 17.2304C57.8858 18.01 59.3665 18.7322 61.3775 18.7322C65.0643 18.7322 68.0509 15.7906 68.0509 11.3518C68.0509 7.89198 66.2374 5.29653 63.361 5.29653C61.4601 5.29653 60.2319 6.30773 59.7005 6.76856V1.03206C59.7005 0.827909 59.5616 0.683452 59.3677 0.683452H56.6864ZM19.0195 5.22009H19.0207C22.9484 5.22042 24.1476 6.83084 24.1476 9.15983V18.0983C24.1476 18.3 24.0076 18.4433 23.8124 18.4433H21.2771C21.1383 18.4433 20.9982 18.3 20.9982 18.0983L20.9432 17.3521C20.0514 18.1544 18.992 18.7322 17.71 18.7322C15.3686 18.7322 13.3624 17.3521 13.3624 14.765C13.3624 11.6323 16.7344 10.9423 18.2128 10.7417C20.6367 10.4241 20.8534 10.3024 20.8534 9.64334L20.8594 9.59081C20.8594 8.18086 20.608 7.03118 18.9094 7.03118C17.5424 7.03118 16.5106 7.52305 15.4811 8.24056C15.3136 8.35397 15.0634 8.67035 14.7282 8.67035C14.5606 8.67035 14.2542 8.50082 14.2542 8.09491V6.80196C14.2503 6.51169 14.4117 6.24432 14.6708 6.1119C15.7861 5.539 17.514 5.22026 19.0195 5.22009ZM32.4514 5.85403V18.0911C32.4514 18.2881 32.5902 18.4361 32.7303 18.4361H35.4176C35.6127 18.4361 35.7528 18.2881 35.7528 18.0911V8.22265C36.2854 7.90389 37.4047 7.32845 38.3563 7.32845C40.2045 7.32845 40.3158 8.48172 40.3158 9.46188V18.0935C40.3158 18.2893 40.4547 18.4373 40.5959 18.4373H43.2832C43.4772 18.4373 43.6184 18.2893 43.6184 18.0923V9.17416C43.6184 6.83658 42.4142 5.22009 39.7269 5.22009C38.1875 5.22009 36.5643 5.99968 35.724 6.5202H35.6714V5.85403C35.6714 5.65465 35.5313 5.50781 35.335 5.50781H32.7315C32.5914 5.50781 32.4526 5.65465 32.4526 5.85403H32.4514ZM89.8942 7.89317C86.9926 7.11357 86.5186 7.98032 86.5186 9.36639V18.0899C86.5186 18.2881 86.3798 18.4362 86.1823 18.4362H83.5069C83.3656 18.4362 83.2268 18.2881 83.2268 18.0911V5.84331C83.2268 5.64274 83.3656 5.49589 83.5069 5.49589H85.9333C86.1284 5.49589 86.2684 5.64274 86.2684 5.84331V6.79601L86.3235 6.82705C87.3553 5.81346 88.5823 4.86195 90.5897 5.35382C90.9536 5.44217 91.1487 5.6702 91.1487 5.95911V7.66394C91.1487 7.8669 90.9799 8.06628 90.7872 8.06628C90.4808 8.06628 90.2557 7.98032 89.8942 7.89317ZM45.3361 9.28158C45.3361 5.2332 50.1937 4.39869 53.8207 5.9519C54.1558 6.09397 54.2396 6.3805 54.2396 6.69687V7.64599C54.2396 8.04593 54.0708 8.16174 53.7919 8.16174C53.6519 8.16174 53.4304 8.04593 53.2628 7.93132C51.2518 6.52734 47.7637 6.35423 47.7637 8.22024C47.7637 10.4874 54.88 9.4535 54.88 13.9902C54.88 19.2766 49.187 19.2455 46.0903 17.8093C45.7551 17.6374 45.6713 17.3807 45.6713 17.062V15.9433C45.6713 15.5422 45.8389 15.4288 46.1178 15.4288C46.3117 15.4288 46.4793 15.5123 46.6469 15.6556C49.0469 17.5527 52.3687 17.3521 52.3687 15.3691C52.3687 12.899 45.3361 13.8481 45.3361 9.28158ZM105.371 9.28158C105.371 5.2332 110.226 4.39869 113.853 5.9519V5.95071C114.188 6.09278 114.272 6.3793 114.272 6.69568V7.6448C114.272 8.04474 114.103 8.16055 113.824 8.16055C113.686 8.16055 113.462 8.04474 113.295 7.93013C111.286 6.52615 107.799 6.35304 107.799 8.21905C107.799 10.4862 114.914 9.4523 114.914 13.989C114.914 19.2766 109.22 19.2455 106.125 17.8093C105.79 17.6374 105.706 17.3807 105.706 17.062V15.9433C105.706 15.5422 105.872 15.4288 106.151 15.4288C106.346 15.4288 106.514 15.5123 106.681 15.6556C109.081 17.5527 112.403 17.3521 112.403 15.3691C112.403 12.899 105.371 13.8481 105.371 9.28158ZM26.4375 18.0911V5.86241C26.4375 5.66304 26.5763 5.51619 26.7128 5.51619H29.3522C29.545 5.51619 29.6826 5.66304 29.6826 5.86361V18.0911C29.6826 18.2881 29.5438 18.4362 29.3522 18.4362H26.7128C26.5763 18.4362 26.4375 18.2881 26.4375 18.0911ZM80.8411 18.1007V5.86361C80.8411 5.66304 80.701 5.51619 80.561 5.51619H77.8749C77.6786 5.51619 77.5397 5.66304 77.5397 5.86361V15.7321C77.0082 16.0496 75.8878 16.6263 74.9362 16.6263C73.0904 16.6263 72.9766 15.4754 72.9766 14.4916V5.86361C72.9766 5.66304 72.8366 5.51619 72.6977 5.51619H70.0116C69.8141 5.51619 69.674 5.66304 69.674 5.86361V14.7794C69.674 17.1157 70.8783 18.731 73.5656 18.731C75.1038 18.731 76.7269 17.9526 77.5672 17.4357H77.6235V18.1007C77.6235 18.2977 77.7623 18.4445 77.9587 18.4445H80.561C80.701 18.4445 80.8411 18.2977 80.8411 18.1007ZM98.0663 14.4296L97.8987 13.884L95.2449 5.83376C95.1611 5.60454 95.051 5.51619 94.7984 5.51619H91.9495C91.7819 5.51619 91.6981 5.60454 91.6981 5.77646C91.6981 5.86241 91.7257 5.94957 91.8382 6.23609L96.4743 17.8213C97.2571 19.7781 94.966 21.1856 92.7587 20.5541C92.4235 20.4669 92.2009 20.381 91.8932 20.381C91.6993 20.381 91.5305 20.5827 91.5305 20.7821V22.4225C91.5305 22.7687 91.7544 23.1698 92.9825 23.1698C95.944 23.1698 97.536 21.6178 98.9605 17.9658L103.54 6.15013C103.597 5.97822 103.652 5.89226 103.652 5.77646C103.654 5.6358 103.542 5.51946 103.401 5.51619H101.417C101.223 5.51619 101.083 5.63319 101.027 5.83376L98.2902 13.884L98.0663 14.4296ZM60.0943 16.8591C60.372 17.031 60.7909 17.1743 61.6001 17.1743C63.3885 17.1743 64.6442 15.2724 64.6442 12.0454C64.6442 10.8325 64.3928 7.42877 61.8515 7.42877C60.8472 7.42877 60.1206 8.00779 59.7004 8.32416V16.1081C59.7004 16.3708 59.7579 16.6275 60.0931 16.8603L60.0943 16.8591ZM20.8043 15.6843C20.8043 16.0604 19.8527 17.0716 18.5659 17.0716C17.0839 17.0716 16.5237 15.9732 16.5237 14.8784C16.5237 13.3193 17.698 11.8783 20.8043 11.8783V15.6843Z" fill="#303030"/>
</g>
</g>
<mask id="mask1_1_881" style="mask-type:luminance" maskUnits="userSpaceOnUse" x="0" y="0" width="115" height="24">
<rect id="rect-1" y="0.486435" width="115" height="22.6834" fill="white"/>
</mask>
<g mask="url(#mask1_1_881)">
</g>
</g>
</g>
</svg>
